<svg width="8" height="16" viewBox="0 0 8 16" fill="none" xmlns="http://www.w3.org/2000/svg">
<path d="M3.18 13.36C2.316 13.1467 1.66 12.768 1.212 12.224C0.774667 11.6693 0.556 10.9707 0.556 10.128H2.364C2.38533 10.64 2.53467 11.0453 2.812 11.344C3.1 11.632 3.484 11.776 3.964 11.776C4.43333 11.776 4.812 11.6427 5.1 11.376C5.39867 11.1093 5.548 10.7627 5.548 10.336C5.548 9.824 5.37733 9.408 5.036 9.088C4.69467 8.768 4.11333 8.47467 3.292 8.208C1.76667 7.728 1.004 6.752 1.004 5.28C1.004 4.53333 1.196 3.904 1.58 3.392C1.97467 2.88 2.508 2.54933 3.18 2.4V0.544H4.892V2.4C5.20133 2.45333 5.484 2.56533 5.74 2.736C6.00667 2.896 6.236 3.104 6.428 3.36C6.62 3.60533 6.77467 3.888 6.892 4.208C7.00933 4.51733 7.07333 4.848 7.084 5.2H5.356C5.30267 4.79467 5.164 4.48 4.94 4.256C4.716 4.032 4.41733 3.92 4.044 3.92C3.67067 3.92 3.372 4.03733 3.148 4.272C2.924 4.50667 2.812 4.82667 2.812 5.232C2.812 5.43467 2.83867 5.616 2.892 5.776C2.956 5.92533 3.05733 6.064 3.196 6.192C3.33467 6.32 3.52667 6.44267 3.772 6.56C4.01733 6.67733 4.32133 6.8 4.684 6.928C5.18533 7.09867 5.60133 7.28533 5.932 7.488C6.27333 7.69067 6.55067 7.91467 6.764 8.16C6.97733 8.40533 7.12667 8.688 7.212 9.008C7.308 9.328 7.356 9.696 7.356 10.112C7.356 10.9547 7.13733 11.664 6.7 12.24C6.26267 12.816 5.66 13.1893 4.892 13.36V15.216H3.18V13.36Z" fill="#109DE3"/>
</svg>
